<?xml version="1.0" standalone="no"?>
<!DOCTYPE svg PUBLIC "-//W3C//DTD SVG 20010904//EN"
 "http://www.w3.org/TR/2001/REC-SVG-20010904/DTD/svg10.dtd">
<svg version="1.0" xmlns="http://www.w3.org/2000/svg"
 width="952.000000pt" height="349.000000pt" viewBox="0 0 952.000000 349.000000"
 preserveAspectRatio="xMidYMid meet">

<g transform="translate(0.000000,349.000000) scale(0.100000,-0.100000)"
fill="#000000" stroke="none">
<path d="M7645 2619 c-321 -40 -547 -96 -719 -178 -128 -61 -201 -116 -272
-204 -209 -263 -221 -599 -30 -845 183 -234 511 -308 785 -177 230 111 335
246 434 561 48 152 117 532 132 726 7 85 6 88 -19 113 -24 23 -32 26 -98 24
-40 -2 -136 -11 -213 -20z m115 -124 c-19 -19 -40 -35 -48 -35 -7 0 -11 -4 -8
-8 3 -5 -65 -78 -150 -163 l-154 -154 0 172 c0 171 0 173 23 177 24 6 205 33
252 39 17 2 50 5 74 6 l45 1 -34 -35z m-460 -68 c0 -19 -3 -36 -6 -40 -3 -3
-5 -80 -4 -171 1 -127 -3 -172 -14 -193 -8 -16 -65 -77 -126 -137 -84 -80
-115 -104 -121 -94 -5 7 -9 114 -8 238 0 124 -3 250 -7 281 -6 50 -4 58 13 67
23 13 242 81 261 82 7 0 12 -13 12 -33z m554 -79 c-18 -154 -40 -260 -56 -269
-7 -5 -80 -9 -163 -9 l-150 0 190 190 c104 105 190 190 191 190 0 0 -5 -46
-12 -102z m-944 -366 l0 -337 -100 -100 -101 -100 -20 25 c-29 37 -76 139 -88
190 -15 66 -13 197 4 265 26 100 81 200 153 277 60 63 124 116 144 117 4 1 7
-151 8 -337z m866 -64 c-3 -18 -20 -79 -38 -135 l-31 -103 -306 0 -306 0 135
135 135 135 209 0 209 0 -7 -32z m-126 -357 c0 -16 -75 -109 -120 -149 -110
-96 -248 -153 -375 -156 -144 -2 -226 17 -314 74 l-61 40 102 100 103 99 333
1 c190 0 332 -4 332 -9z"/>
<path d="M780 2477 c0 -8 11 -19 23 -24 13 -6 34 -24 47 -40 12 -15 116 -257
230 -538 l207 -510 58 0 58 0 179 485 c98 266 189 501 203 522 13 20 40 49 60
65 61 49 52 53 -125 53 -136 0 -160 -2 -160 -15 0 -8 9 -15 20 -15 45 0 90
-29 106 -67 30 -70 18 -117 -142 -546 -61 -168 -90 -233 -95 -220 -4 10 -70
178 -147 373 -77 195 -142 369 -146 386 -9 39 17 64 73 71 25 4 41 11 41 19 0
12 -44 14 -245 14 -198 0 -245 -3 -245 -13z"/>
<path d="M3930 2476 c0 -8 16 -16 40 -20 76 -12 75 -4 78 -479 4 -518 -2 -554
-82 -575 -17 -5 -32 -15 -34 -23 -2 -12 23 -14 153 -15 116 0 155 2 155 12 0
6 -22 17 -49 24 -27 6 -58 22 -70 34 -35 37 -41 113 -39 467 l3 334 343 -435
344 -435 44 -3 44 -3 0 498 c0 468 2 501 19 540 16 34 27 44 60 54 23 7 41 18
41 26 0 10 -32 13 -155 13 -127 0 -155 -3 -155 -14 0 -9 15 -17 40 -21 52 -9
87 -38 100 -83 7 -24 10 -144 8 -336 l-3 -299 -305 377 -305 376 -137 0 c-110
0 -138 -3 -138 -14z"/>
<path d="M3616 2427 c-28 -10 -78 -21 -113 -24 l-63 -6 0 -103 0 -104 -65 0
c-51 0 -65 -3 -65 -15 0 -12 14 -15 64 -15 l65 0 3 -337 c3 -372 5 -384 66
-435 17 -15 48 -32 68 -38 54 -18 155 -7 200 20 36 23 94 101 94 127 0 20 -28
15 -34 -5 -17 -53 -102 -88 -141 -59 -19 15 -20 29 -23 371 l-3 356 96 0 c78
0 95 3 95 15 0 12 -17 15 -95 15 l-94 0 -3 128 -3 128 -49 -19z"/>
<path d="M6128 2434 c-14 -7 -59 -19 -100 -25 -40 -6 -79 -13 -85 -15 -9 -2
-13 -32 -13 -104 l0 -100 -65 0 c-51 0 -65 -3 -65 -15 0 -12 14 -15 64 -15
l64 0 4 -332 c4 -352 7 -377 56 -432 44 -49 149 -69 237 -45 54 15 115 77 115
117 l0 30 -39 -39 c-45 -45 -86 -52 -117 -18 -18 20 -19 41 -19 368 l0 346 88
3 c68 2 87 6 87 17 0 12 -18 15 -90 15 l-89 0 -3 129 -3 129 -27 -14z"/>
<path d="M2121 2200 c-212 -45 -323 -242 -291 -519 17 -151 81 -251 197 -307
52 -26 68 -29 158 -29 92 0 104 2 153 29 63 35 112 87 147 155 29 58 29 61 12
61 -7 0 -31 -20 -54 -44 -98 -104 -249 -99 -323 12 -40 61 -53 109 -54 212
l-1 85 224 3 224 2 -6 72 c-7 85 -50 179 -98 217 -61 48 -192 71 -288 51z
m129 -48 c36 -37 60 -117 60 -204 l0 -69 -122 3 -123 3 4 55 c5 81 36 171 68
202 50 46 75 48 113 10z"/>
<path d="M3083 2196 c-53 -17 -90 -46 -125 -98 l-28 -41 0 71 0 72 -62 -8
c-35 -4 -109 -7 -165 -7 -91 0 -103 -2 -103 -17 0 -12 8 -18 23 -18 13 0 34
-12 48 -26 l24 -26 3 -322 c3 -312 2 -323 -18 -348 -11 -15 -34 -29 -50 -33
-17 -4 -30 -12 -30 -18 0 -9 63 -12 240 -12 174 0 240 3 240 11 0 7 -17 15
-37 19 -58 11 -90 31 -102 66 -7 20 -11 123 -11 274 0 258 5 292 51 355 23 31
92 70 123 70 15 0 13 -6 -12 -34 -76 -87 -36 -196 73 -196 76 0 125 51 125
130 0 63 -26 109 -74 131 -48 22 -75 23 -133 5z"/>
<path d="M5351 2200 c-123 -26 -217 -107 -264 -228 -26 -64 -37 -194 -26 -292
17 -151 81 -250 198 -308 50 -24 67 -27 156 -27 92 0 104 2 154 30 61 34 120
96 150 160 25 53 25 55 7 55 -8 0 -28 -16 -44 -36 -64 -77 -174 -104 -258 -63
-47 22 -98 89 -114 148 -14 54 -23 166 -16 195 l6 26 220 0 220 0 0 48 c0 94
-41 191 -102 241 -59 48 -191 71 -287 51z m129 -48 c36 -37 60 -117 60 -204
l0 -69 -122 3 -123 3 4 55 c5 81 36 171 68 202 50 46 75 48 113 10z"/>
</g>
</svg>
