<?xml version="1.0" encoding="iso-8859-1"?>
<!-- Generator: Adobe Illustrator 21.0.0, SVG Export Plug-In . SVG Version: 6.00 Build 0)  -->
<svg version="1.1" id="Capa_1" xmlns="http://www.w3.org/2000/svg" xmlns:xlink="http://www.w3.org/1999/xlink" x="0px" y="0px"
	 viewBox="0 0 512 512" style="enable-background:new 0 0 512 512;" xml:space="preserve">
<linearGradient id="SVGID_1_" gradientUnits="userSpaceOnUse" x1="74.9807" y1="439.0193" x2="437.0193" y2="76.9807" gradientTransform="matrix(1 0 0 -1 0 514)">
	<stop  offset="0" style="stop-color:#77AAD4"/>
	<stop  offset="1" style="stop-color:#185E98"/>
</linearGradient>
<circle style="fill:url(#SVGID_1_);" cx="256" cy="256" r="256"/>
<g>
	
		<linearGradient id="SVGID_2_" gradientUnits="userSpaceOnUse" x1="125.528" y1="242.6335" x2="386.472" y2="242.6335" gradientTransform="matrix(1 0 0 -1 0 514)">
		<stop  offset="0" style="stop-color:#FEF1DA"/>
		<stop  offset="1" style="stop-color:#FCD999"/>
	</linearGradient>
	<polygon style="fill:url(#SVGID_2_);" points="256,255.125 231.638,255.125 125.528,255.125 125.528,287.608 256,287.608 
		386.472,287.608 386.472,255.125 	"/>
	
		<linearGradient id="SVGID_3_" gradientUnits="userSpaceOnUse" x1="125.528" y1="364.4435" x2="386.472" y2="364.4435" gradientTransform="matrix(1 0 0 -1 0 514)">
		<stop  offset="0" style="stop-color:#FEF1DA"/>
		<stop  offset="1" style="stop-color:#FCD999"/>
	</linearGradient>
	<polygon style="fill:url(#SVGID_3_);" points="256,133.315 231.638,133.315 125.528,133.315 125.528,165.798 256,165.798 
		386.472,165.798 386.472,133.315 	"/>
</g>
<g>
	
		<linearGradient id="SVGID_4_" gradientUnits="userSpaceOnUse" x1="123.5" y1="258.3335" x2="386.65" y2="258.3335" gradientTransform="matrix(1 0 0 -1 0 514)">
		<stop  offset="0" style="stop-color:#134A79"/>
		<stop  offset="1" style="stop-color:#092339"/>
	</linearGradient>
	<polygon style="fill:url(#SVGID_4_);" points="133.648,378.018 117.407,361.777 117.407,271.366 125.528,255.125 117.407,238.884 
		117.407,149.556 133.648,133.315 	"/>
	
		<linearGradient id="SVGID_5_" gradientUnits="userSpaceOnUse" x1="123.5" y1="258.3335" x2="386.65" y2="258.3335" gradientTransform="matrix(1 0 0 -1 0 514)">
		<stop  offset="0" style="stop-color:#134A79"/>
		<stop  offset="1" style="stop-color:#092339"/>
	</linearGradient>
	<polygon style="fill:url(#SVGID_5_);" points="394.593,361.777 378.352,378.018 378.352,133.315 394.593,149.556 394.593,238.884 
		386.472,255.125 394.593,271.366 	"/>
</g>
<g>
	
		<linearGradient id="SVGID_6_" gradientUnits="userSpaceOnUse" x1="151" y1="301.6435" x2="355.75" y2="301.6435" gradientTransform="matrix(1 0 0 -1 0 514)">
		<stop  offset="0" style="stop-color:#AFFF96"/>
		<stop  offset="1" style="stop-color:#4FC247"/>
	</linearGradient>
	<path style="fill:url(#SVGID_6_);" d="M202.945,238.884c29.3,0,53.055-23.755,53.055-53.055
		C226.7,185.829,202.945,209.584,202.945,238.884z"/>
	
		<linearGradient id="SVGID_7_" gradientUnits="userSpaceOnUse" x1="151" y1="301.6435" x2="355.75" y2="301.6435" gradientTransform="matrix(1 0 0 -1 0 514)">
		<stop  offset="0" style="stop-color:#AFFF96"/>
		<stop  offset="1" style="stop-color:#4FC247"/>
	</linearGradient>
	<path style="fill:url(#SVGID_7_);" d="M149.89,185.829c0,29.3,23.755,53.055,53.055,53.055
		C202.945,209.584,179.189,185.829,149.89,185.829z"/>
	
		<linearGradient id="SVGID_8_" gradientUnits="userSpaceOnUse" x1="151" y1="301.6435" x2="355.75" y2="301.6435" gradientTransform="matrix(1 0 0 -1 0 514)">
		<stop  offset="0" style="stop-color:#AFFF96"/>
		<stop  offset="1" style="stop-color:#4FC247"/>
	</linearGradient>
	<path style="fill:url(#SVGID_8_);" d="M309.055,238.884c29.3,0,53.055-23.755,53.055-53.055
		C332.811,185.829,309.055,209.584,309.055,238.884z"/>
	
		<linearGradient id="SVGID_9_" gradientUnits="userSpaceOnUse" x1="151" y1="301.6435" x2="355.75" y2="301.6435" gradientTransform="matrix(1 0 0 -1 0 514)">
		<stop  offset="0" style="stop-color:#AFFF96"/>
		<stop  offset="1" style="stop-color:#4FC247"/>
	</linearGradient>
	<path style="fill:url(#SVGID_9_);" d="M256,185.829c0,29.3,23.755,53.055,53.055,53.055C309.055,209.584,285.3,185.829,256,185.829
		z"/>
	
		<linearGradient id="SVGID_10_" gradientUnits="userSpaceOnUse" x1="151" y1="178.7505" x2="355.75" y2="178.7505" gradientTransform="matrix(1 0 0 -1 0 514)">
		<stop  offset="0" style="stop-color:#AFFF96"/>
		<stop  offset="1" style="stop-color:#4FC247"/>
	</linearGradient>
	<path style="fill:url(#SVGID_10_);" d="M202.945,361.777c29.3,0,53.055-23.756,53.055-53.055
		C226.7,308.722,202.945,332.477,202.945,361.777z"/>
	
		<linearGradient id="SVGID_11_" gradientUnits="userSpaceOnUse" x1="151" y1="178.7505" x2="355.75" y2="178.7505" gradientTransform="matrix(1 0 0 -1 0 514)">
		<stop  offset="0" style="stop-color:#AFFF96"/>
		<stop  offset="1" style="stop-color:#4FC247"/>
	</linearGradient>
	<path style="fill:url(#SVGID_11_);" d="M149.89,308.722c0,29.3,23.755,53.055,53.055,53.055
		C202.945,332.477,179.189,308.722,149.89,308.722z"/>
	
		<linearGradient id="SVGID_12_" gradientUnits="userSpaceOnUse" x1="151" y1="178.7505" x2="355.75" y2="178.7505" gradientTransform="matrix(1 0 0 -1 0 514)">
		<stop  offset="0" style="stop-color:#AFFF96"/>
		<stop  offset="1" style="stop-color:#4FC247"/>
	</linearGradient>
	<path style="fill:url(#SVGID_12_);" d="M309.055,361.777c29.3,0,53.055-23.756,53.055-53.055
		C332.811,308.722,309.055,332.477,309.055,361.777z"/>
	
		<linearGradient id="SVGID_13_" gradientUnits="userSpaceOnUse" x1="151" y1="178.7505" x2="355.75" y2="178.7505" gradientTransform="matrix(1 0 0 -1 0 514)">
		<stop  offset="0" style="stop-color:#AFFF96"/>
		<stop  offset="1" style="stop-color:#4FC247"/>
	</linearGradient>
	<path style="fill:url(#SVGID_13_);" d="M256,308.722c0,29.3,23.755,53.055,53.055,53.055
		C309.055,332.477,285.3,308.722,256,308.722z"/>
</g>
<g>
	
		<linearGradient id="SVGID_14_" gradientUnits="userSpaceOnUse" x1="117.407" y1="135.9815" x2="394.593" y2="135.9815" gradientTransform="matrix(1 0 0 -1 0 514)">
		<stop  offset="0" style="stop-color:#D2E3F1"/>
		<stop  offset="1" style="stop-color:#77AAD4"/>
	</linearGradient>
	<polygon style="fill:url(#SVGID_14_);" points="256,361.777 117.407,361.777 117.407,394.26 256,394.26 394.593,394.26 
		394.593,361.777 	"/>
	
		<linearGradient id="SVGID_15_" gradientUnits="userSpaceOnUse" x1="117.407" y1="258.8745" x2="394.593" y2="258.8745" gradientTransform="matrix(1 0 0 -1 0 514)">
		<stop  offset="0" style="stop-color:#D2E3F1"/>
		<stop  offset="1" style="stop-color:#77AAD4"/>
	</linearGradient>
	<polygon style="fill:url(#SVGID_15_);" points="256,238.884 117.407,238.884 117.407,271.367 256,271.367 394.593,271.367 
		394.593,238.884 	"/>
	
		<linearGradient id="SVGID_16_" gradientUnits="userSpaceOnUse" x1="117.407" y1="380.685" x2="394.593" y2="380.685" gradientTransform="matrix(1 0 0 -1 0 514)">
		<stop  offset="0" style="stop-color:#D2E3F1"/>
		<stop  offset="1" style="stop-color:#77AAD4"/>
	</linearGradient>
	<polygon style="fill:url(#SVGID_16_);" points="256,117.074 117.407,117.074 117.407,149.556 256,149.556 394.593,149.556 
		394.593,117.074 	"/>
</g>
<g>
</g>
<g>
</g>
<g>
</g>
<g>
</g>
<g>
</g>
<g>
</g>
<g>
</g>
<g>
</g>
<g>
</g>
<g>
</g>
<g>
</g>
<g>
</g>
<g>
</g>
<g>
</g>
<g>
</g>
</svg>
